<svg width="170" height="30" viewBox="0 0 170 30" fill="none" xmlns="http://www.w3.org/2000/svg">
<g clip-path="url(#clip0_4320_190)">
<mask id="mask0_4320_190" style="mask-type:luminance" maskUnits="userSpaceOnUse" x="0" y="0" width="170" height="30">
<path d="M169.5 0H0V30H169.5V0Z" fill="white"/>
</mask>
<g mask="url(#mask0_4320_190)">
<path fill-rule="evenodd" clip-rule="evenodd" d="M3.49483 19.8511C1.16799 17.5714 0 14.8313 0 11.6353C0 8.43921 1.16342 5.69909 3.49483 3.41945C5.82167 1.13982 8.5956 0 11.8167 0C14.9009 0 17.5653 1.06687 19.7964 3.20517L17.5517 5.44833C15.9411 3.93465 14.0295 3.17781 11.8167 3.17781C9.48986 3.17781 7.51433 3.99848 5.89467 5.64894C4.275 7.29483 3.46745 9.29177 3.46745 11.6353C3.46745 13.9833 4.275 15.9757 5.89467 17.6216C7.51433 19.2675 9.48531 20.0927 11.8167 20.0927C14.1846 20.0927 16.1419 19.3176 17.6977 17.7629C18.6238 16.8374 19.2033 15.5015 19.4314 13.7599H11.8213V10.582H22.5293C22.6434 11.1474 22.6981 11.8131 22.6981 12.5699C22.6981 15.693 21.781 18.1687 19.9424 20.0061C17.8574 22.1854 15.1519 23.2705 11.8167 23.2705C8.5956 23.2705 5.82623 22.1307 3.49483 19.8511ZM36.7002 21.1276C35.2402 22.5547 33.4609 23.2705 31.3622 23.2705C29.2635 23.2705 27.4796 22.5547 26.0241 21.1276C24.5642 19.7006 23.8388 17.918 23.8388 15.7797C23.8388 13.6413 24.5687 11.8587 26.0241 10.4316C27.4841 9.00454 29.2635 8.28875 31.3622 8.28875C33.4609 8.28875 35.2449 9.00454 36.7002 10.4316C38.1603 11.8587 38.8857 13.6459 38.8857 15.7797C38.8857 17.918 38.1556 19.7006 36.7002 21.1276ZM28.3784 19.0304C29.2133 19.8921 30.2033 20.3206 31.3622 20.3206C32.5165 20.3206 33.5111 19.8921 34.3461 19.0304C35.1809 18.1687 35.5961 17.0882 35.5961 15.7797C35.5961 14.4574 35.1855 13.3677 34.3597 12.5152C33.5339 11.6626 32.5393 11.2386 31.3622 11.2386C30.1896 11.2386 29.1904 11.6626 28.3647 12.5152C27.5389 13.3677 27.1282 14.4529 27.1282 15.7797C27.1282 17.0836 27.5434 18.1687 28.3784 19.0304ZM53.1159 21.1276C51.6559 22.5547 49.8765 23.2705 47.7778 23.2705C45.6791 23.2705 43.8952 22.5547 42.4398 21.1276C40.9798 19.7006 40.2543 17.918 40.2543 15.7797C40.2543 13.6413 40.9844 11.8587 42.4398 10.4316C43.8952 9.00454 45.6791 8.28875 47.7778 8.28875C49.8765 8.28875 51.6604 9.00454 53.1159 10.4316C54.5758 11.8587 55.3013 13.6459 55.3013 15.7797C55.3013 17.918 54.5713 19.7006 53.1159 21.1276ZM44.794 19.0304C45.6289 19.8921 46.619 20.3206 47.7778 20.3206C48.9321 20.3206 49.9268 19.8921 50.7616 19.0304C51.5966 18.1687 52.0118 17.0882 52.0118 15.7797C52.0118 14.4574 51.6011 13.3677 50.7753 12.5152C49.9496 11.6626 48.9549 11.2386 47.7778 11.2386C46.6053 11.2386 45.6061 11.6626 44.7803 12.5152C43.9545 13.3677 43.5439 14.4529 43.5439 15.7797C43.5439 17.0836 43.9591 18.1687 44.794 19.0304ZM63.9061 30C62.2407 30 60.8401 29.5532 59.704 28.6641C58.568 27.7751 57.7559 26.7447 57.2631 25.5684L60.1329 24.3784C60.4341 25.0988 60.9085 25.7234 61.5519 26.2523C62.1951 26.7812 62.9799 27.0456 63.9106 27.0456C65.1607 27.0456 66.1416 26.6672 66.8488 25.9103C67.5606 25.1535 67.9119 24.0639 67.9119 22.6459V21.5654H67.7978C66.8716 22.7006 65.5531 23.2705 63.8513 23.2705C61.9396 23.2705 60.2652 22.5411 58.8235 21.0867C57.3863 19.6323 56.6655 17.8724 56.6655 15.807C56.6655 13.728 57.3863 11.9499 58.8235 10.4863C60.2607 9.0228 61.9396 8.28875 63.8513 8.28875C64.7045 8.28875 65.4755 8.44833 66.1645 8.772C66.8534 9.09574 67.4009 9.49243 67.7978 9.96197H67.9119V8.74011H71.0372V22.1945C71.0372 24.807 70.371 26.7584 69.0342 28.0577C67.6974 29.3481 65.9911 30 63.9061 30ZM64.1342 20.3206C65.2702 20.3206 66.2238 19.8921 66.9903 19.0304C67.7567 18.1687 68.14 17.0973 68.14 15.807C68.14 14.503 67.7567 13.4133 66.9903 12.5426C66.2238 11.6717 65.2702 11.2386 64.1342 11.2386C62.9799 11.2386 61.9944 11.6763 61.1823 12.5426C60.3656 13.4133 59.9595 14.4985 59.9595 15.807C59.9595 17.0927 60.3656 18.1687 61.1823 19.0304C61.9944 19.8921 62.9799 20.3206 64.1342 20.3206ZM76.6033 0.793313V22.8191H73.3092V0.793313H76.6033ZM85.6323 23.2705C83.5108 23.2705 81.7406 22.5501 80.3217 21.114C78.9027 19.6778 78.1911 17.8997 78.1911 15.7797C78.1911 13.5867 78.8754 11.7857 80.2487 10.386C81.622 8.98629 83.2918 8.28419 85.2628 8.28419C86.1711 8.28419 87.0146 8.44833 87.7903 8.78117C88.566 9.114 89.2097 9.53803 89.7206 10.0577C90.2314 10.5775 90.6377 11.0836 90.9429 11.576C91.2446 12.0684 91.4906 12.5608 91.6826 13.0532L92.0246 13.9058L82.0006 18.0501C82.7762 19.5639 83.9899 20.3206 85.637 20.3206C87.1517 20.3206 88.3834 19.6323 89.328 18.2508L91.8831 19.9559C91.3123 20.8085 90.51 21.5745 89.4694 22.2538C88.4246 22.9331 87.1474 23.2705 85.6323 23.2705ZM81.4577 15.5517L88.1597 12.7705C87.9686 12.2963 87.6214 11.9133 87.1106 11.6216C86.5997 11.3298 86.0203 11.1839 85.3768 11.1839C84.4096 11.1839 83.5063 11.5805 82.6668 12.3739C81.8228 13.1672 81.4212 14.2295 81.4577 15.5517Z" fill="#FBBB04"/>
<path fill-rule="evenodd" clip-rule="evenodd" d="M109.323 23.2712C106.329 23.2712 103.82 22.2591 101.794 20.2347C99.7689 18.2104 98.7557 15.6846 98.7557 12.6573C98.7557 9.62983 99.7689 7.10404 101.794 5.07972C103.82 3.05541 106.329 2.04325 109.323 2.04325C112.388 2.04325 114.879 3.15115 116.791 5.3624L114.975 7.12228C113.593 5.39887 111.708 4.54173 109.323 4.54173C107.105 4.54173 105.239 5.28945 103.715 6.78489C102.191 8.28033 101.429 10.2363 101.429 12.6573C101.429 15.0782 102.191 17.0387 103.715 18.5341C105.239 20.0295 107.109 20.7773 109.323 20.7773C111.763 20.7773 113.848 19.7925 115.569 17.8275L117.384 19.642C116.457 20.7591 115.29 21.6435 113.889 22.2955C112.493 22.9475 110.969 23.2712 109.323 23.2712ZM122.33 22.8198H119.715V2.49917H122.33V22.8198ZM126.591 10.5736C127.937 9.16483 129.648 8.45814 131.733 8.45814C133.814 8.45814 135.529 9.16483 136.875 10.5736C138.22 11.9824 138.891 13.7469 138.891 15.8669C138.891 17.987 138.22 19.7515 136.875 21.1603C135.529 22.5691 133.818 23.2758 131.733 23.2758C129.648 23.2758 127.937 22.5691 126.591 21.1603C125.245 19.7515 124.575 17.987 124.575 15.8669C124.575 13.7469 125.245 11.9824 126.591 10.5736ZM128.535 19.5098C129.434 20.4262 130.501 20.8867 131.728 20.8867C132.96 20.8867 134.023 20.4262 134.922 19.5098C135.821 18.5934 136.273 17.3761 136.273 15.8624C136.273 14.3487 135.821 13.1314 134.922 12.215C134.023 11.2986 132.956 10.8381 131.728 10.8381C130.497 10.8381 129.434 11.2986 128.535 12.215C127.635 13.1314 127.184 14.3487 127.184 15.8624C127.184 17.3761 127.635 18.5934 128.535 19.5098ZM153.345 22.8198H150.845V20.8912H150.731C150.334 21.5523 149.727 22.1177 148.915 22.5782C148.103 23.0433 147.241 23.2758 146.332 23.2758C144.59 23.2758 143.271 22.7469 142.372 21.6846C141.474 20.6268 141.022 19.2044 141.022 17.4262V8.90949H143.637V16.9977C143.637 19.5919 144.782 20.8867 147.072 20.8867C148.153 20.8867 149.034 20.4536 149.714 19.5827C150.393 18.7119 150.735 17.7089 150.735 16.5736V8.90949H153.35V22.8198H153.345ZM162.206 23.2712C160.407 23.2712 158.852 22.56 157.547 21.142C156.243 19.7241 155.589 17.9643 155.589 15.8624C155.589 13.7606 156.243 12.0007 157.547 10.5828C158.852 9.16483 160.407 8.45358 162.206 8.45358C163.264 8.45358 164.217 8.68157 165.062 9.13294C165.905 9.58886 166.535 10.1542 166.95 10.8381H167.064L166.95 8.90949V2.49917H169.564V22.8198H167.064V20.8912H166.95C166.535 21.5706 165.905 22.1405 165.062 22.5964C164.217 23.0433 163.264 23.2712 162.206 23.2712ZM162.63 20.8867C163.862 20.8867 164.907 20.4308 165.769 19.5235C166.631 18.6162 167.06 17.3943 167.06 15.8624C167.06 14.3305 166.631 13.1086 165.769 12.2013C164.907 11.294 163.862 10.8381 162.63 10.8381C161.416 10.8381 160.376 11.2986 159.504 12.215C158.633 13.1314 158.199 14.3487 158.199 15.8624C158.199 17.3761 158.633 18.5934 159.504 19.5098C160.376 20.4308 161.421 20.8867 162.63 20.8867Z" fill="#5F6368"/>
<path fill-rule="evenodd" clip-rule="evenodd" d="M36.7017 21.1269C35.2417 22.554 33.4623 23.2698 31.3636 23.2698C29.2648 23.2698 27.4809 22.554 26.0255 21.1269C24.5655 19.6999 23.8401 17.9172 23.8401 15.7789C23.8401 13.6407 24.5701 11.858 26.0255 10.4309C27.4855 9.00386 29.2648 8.28804 31.3636 8.28804C33.4623 8.28804 35.2462 9.00386 36.7017 10.4309C38.1616 11.858 38.887 13.6452 38.887 15.7789C38.887 17.9172 38.1571 19.6999 36.7017 21.1269ZM28.3797 19.0297C29.2147 19.8914 30.2047 20.3199 31.3636 20.3199C32.5179 20.3199 33.5125 19.8914 34.3474 19.0297C35.1824 18.168 35.5975 17.0874 35.5975 15.7789C35.5975 14.4567 35.1869 13.3671 34.3611 12.5145C33.5353 11.6619 32.5407 11.2379 31.3636 11.2379C30.1911 11.2379 29.1919 11.6619 28.366 12.5145C27.5403 13.3671 27.1296 14.4522 27.1296 15.7789C27.1296 17.0829 27.5448 18.168 28.3797 19.0297ZM85.6338 23.2698C83.5122 23.2698 81.742 22.5495 80.3231 21.1132C78.9042 19.6771 78.1924 17.8989 78.1924 15.7789C78.1924 13.5859 78.8768 11.785 80.2501 10.3853C81.6234 8.9856 83.2932 8.28348 85.2642 8.28348C86.172 8.28348 87.0163 8.44761 87.792 8.7804C88.5677 9.11323 89.2106 9.53726 89.7214 10.057C90.2323 10.5768 90.6386 11.0829 90.9446 11.5753C91.2454 12.0677 91.4923 12.5601 91.6834 13.0525L92.0254 13.9051L82.0021 18.0495C82.7777 19.5631 83.9913 20.3199 85.6383 20.3199C87.1534 20.3199 88.3851 19.6315 89.3297 18.25L91.884 19.9552C91.314 20.8078 90.5109 21.5738 89.4711 22.2531C88.4263 22.9324 87.1483 23.2698 85.6338 23.2698ZM81.4592 15.551L88.1614 12.7698C87.9694 12.2956 87.6231 11.9127 87.1123 11.6209C86.6014 11.3291 86.022 11.1831 85.3783 11.1831C84.411 11.1831 83.5077 11.5798 82.6682 12.3731C81.8241 13.1665 81.4227 14.2287 81.4592 15.551Z" fill="#EB4337"/>
<path fill-rule="evenodd" clip-rule="evenodd" d="M3.49483 19.8511C1.16799 17.5714 0 14.8313 0 11.6353C0 8.43921 1.16342 5.69909 3.49483 3.41945C5.82167 1.13982 8.5956 0 11.8167 0C14.9009 0 17.5653 1.06687 19.7964 3.20517L17.5517 5.44833C15.9411 3.93465 14.0295 3.17781 11.8167 3.17781C9.48986 3.17781 7.51433 3.99848 5.89467 5.64894C4.275 7.29483 3.46745 9.29177 3.46745 11.6353C3.46745 13.9833 4.275 15.9757 5.89467 17.6216C7.51433 19.2675 9.48531 20.0927 11.8167 20.0927C14.1846 20.0927 16.1419 19.3176 17.6977 17.7629C18.6238 16.8374 19.2033 15.5015 19.4314 13.7599H11.8213V10.582H22.5293C22.6434 11.1474 22.6981 11.8131 22.6981 12.5699C22.6981 15.693 21.781 18.1687 19.9424 20.0061C17.8574 22.1854 15.1519 23.2705 11.8167 23.2705C8.5956 23.2705 5.82623 22.1307 3.49483 19.8511ZM63.906 30C62.2407 30 60.8401 29.5532 59.704 28.6641C58.568 27.7751 57.7558 26.7447 57.2631 25.5684L60.1329 24.3784C60.4341 25.0988 60.9085 25.7234 61.5518 26.2523C62.1951 26.7812 62.9799 27.0456 63.9106 27.0456C65.1607 27.0456 66.1416 26.6672 66.8488 25.9103C67.5605 25.1535 67.9119 24.0639 67.9119 22.6459V21.5654H67.7978C66.8716 22.7006 65.5531 23.2705 63.8513 23.2705C61.9396 23.2705 60.2652 22.5411 58.8235 21.0867C57.3863 19.6323 56.6655 17.8724 56.6655 15.807C56.6655 13.728 57.3863 11.9499 58.8235 10.4863C60.2607 9.0228 61.9396 8.28875 63.8513 8.28875C64.7044 8.28875 65.4755 8.44833 66.1644 8.772C66.8534 9.09574 67.4008 9.49243 67.7978 9.96197H67.9119V8.74011H71.0371V22.1945C71.0371 24.807 70.371 26.7584 69.0342 28.0577C67.6974 29.3481 65.9911 30 63.906 30ZM64.1342 20.3206C65.2702 20.3206 66.2237 19.8921 66.9903 19.0304C67.7567 18.1687 68.1399 17.0973 68.1399 15.807C68.1399 14.503 67.7567 13.4133 66.9903 12.5426C66.2237 11.6717 65.2702 11.2386 64.1342 11.2386C62.9799 11.2386 61.9944 11.6763 61.1823 12.5426C60.3656 13.4133 59.9595 14.4985 59.9595 15.807C59.9595 17.0927 60.3656 18.1687 61.1823 19.0304C61.9944 19.8921 62.9799 20.3206 64.1342 20.3206ZM76.6033 0.793313V22.8191H73.3092V0.793313H76.6033Z" fill="#4285F4"/>
<path fill-rule="evenodd" clip-rule="evenodd" d="M76.6041 0.792686V22.8185H73.31V0.792686H76.6041Z" fill="#35A752"/>
</g>
</g>
<defs>
<clipPath id="clip0_4320_190">
<rect width="169.714" height="30" fill="white"/>
</clipPath>
</defs>
</svg>
